name C:/MyDriveSym/Projects/mobilecap/Data\Session20210819_0002\mocap\ForceDataProcessed\walking4_forces.mot
datacolumns 19
datarows 22
range 0.69450000 0.70500000
endheader 
time	R_ground_force_vx	R_ground_force_vy	R_ground_force_vz	R_ground_force_px	R_ground_force_py	R_ground_force_pz	R_ground_torque_x	R_ground_torque_y	R_ground_torque_z	L_ground_force_vx	L_ground_force_vy	L_ground_force_vz	L_ground_force_px	L_ground_force_py	L_ground_force_pz	L_ground_torque_x	L_ground_torque_y	L_ground_torque_z	
          0.69450000	         63.16473600	        204.83520500	         -6.18672900	          0.30090500	          0.00600000	         -0.17521500	          0.00000000	         -0.49384900	          0.00000000	        -88.41218100	        498.32346100	         15.16327500	          0.81438500	          0.00600000	         -0.31675100	          0.00000000	         -0.01754700	          0.00000000	
          0.69500000	         62.67148200	        202.65394100	         -6.08795600	          0.30108500	          0.00600000	         -0.17519000	          0.00000000	         -0.48521300	          0.00000000	        -88.64805800	        500.00890300	         15.33793700	          0.81454400	          0.00600000	         -0.31679900	          0.00000000	         -0.02596900	          0.00000000	
          0.69550000	         62.17780500	        200.48125900	         -5.99001700	          0.30126600	          0.00600000	         -0.17516400	          0.00000000	         -0.47663500	          0.00000000	        -88.88082300	        501.68679900	         15.51238000	          0.81470200	          0.00600000	         -0.31684700	          0.00000000	         -0.03442400	          0.00000000	
          0.69600000	         61.68376200	        198.31727200	         -5.89291000	          0.30144800	          0.00600000	         -0.17513800	          0.00000000	         -0.46811700	          0.00000000	        -89.11046800	        503.35709300	         15.68659300	          0.81486000	          0.00600000	         -0.31689500	          0.00000000	         -0.04291400	          0.00000000	
          0.69650000	         61.18940800	        196.16209300	         -5.79663500	          0.30163200	          0.00600000	         -0.17511200	          0.00000000	         -0.45965700	          0.00000000	        -89.33698800	        505.01973200	         15.86056200	          0.81501800	          0.00600000	         -0.31694300	          0.00000000	         -0.05143700	          0.00000000	
          0.69700000	         60.69480100	        194.01583200	         -5.70119100	          0.30181700	          0.00600000	         -0.17508500	          0.00000000	         -0.45125700	          0.00000000	        -89.56037800	        506.67465900	         16.03427500	          0.81517500	          0.00600000	         -0.31699100	          0.00000000	         -0.05999100	          0.00000000	
          0.69750000	         60.19999800	        191.87859800	         -5.60657600	          0.30200400	          0.00600000	         -0.17505700	          0.00000000	         -0.44291600	          0.00000000	        -89.78063200	        508.32182200	         16.20772000	          0.81533100	          0.00600000	         -0.31703900	          0.00000000	         -0.06857600	          0.00000000	
          0.69800000	         59.70505400	        189.75049700	         -5.51278800	          0.30219200	          0.00600000	         -0.17503000	          0.00000000	         -0.43463400	          0.00000000	        -89.99774700	        509.96116700	         16.38088500	          0.81548800	          0.00600000	         -0.31708600	          0.00000000	         -0.07719200	          0.00000000	
          0.69850000	         59.21002500	        187.63163700	         -5.41982800	          0.30238100	          0.00600000	         -0.17500200	          0.00000000	         -0.42641200	          0.00000000	        -90.21171600	        511.59264000	         16.55375800	          0.81564400	          0.00600000	         -0.31713400	          0.00000000	         -0.08583600	          0.00000000	
          0.69900000	         58.71496700	        185.52212100	         -5.32769200	          0.30257200	          0.00600000	         -0.17497300	          0.00000000	         -0.41825000	          0.00000000	        -90.42253600	        513.21618800	         16.72632500	          0.81579900	          0.00600000	         -0.31718100	          0.00000000	         -0.09450900	          0.00000000	
          0.69950000	         58.21993500	        183.42205000	         -5.23637900	          0.30276500	          0.00600000	         -0.17494400	          0.00000000	         -0.41014700	          0.00000000	        -90.63020400	        514.83175800	         16.89857700	          0.81595400	          0.00600000	         -0.31722900	          0.00000000	         -0.10320800	          0.00000000	
          0.70000000	         57.72498500	        181.33152700	         -5.14588700	          0.30295900	          0.00600000	         -0.17491500	          0.00000000	         -0.40210400	          0.00000000	        -90.83471600	        516.43929800	         17.07050000	          0.81610900	          0.00600000	         -0.31727600	          0.00000000	         -0.11193400	          0.00000000	
          0.70050000	         57.23017200	        179.25064900	         -5.05621500	          0.30315500	          0.00600000	         -0.17488500	          0.00000000	         -0.39412100	          0.00000000	        -91.03606700	        518.03875500	         17.24208400	          0.81626400	          0.00600000	         -0.31732400	          0.00000000	         -0.12068500	          0.00000000	
          0.70100000	         56.73555000	        177.17951400	         -4.96736000	          0.30335200	          0.00600000	         -0.17485500	          0.00000000	         -0.38619800	          0.00000000	        -91.23425600	        519.63007700	         17.41331600	          0.81641800	          0.00600000	         -0.31737100	          0.00000000	         -0.12946100	          0.00000000	
          0.70150000	         56.24117500	        175.11821700	         -4.87932000	          0.30355100	          0.00600000	         -0.17482400	          0.00000000	         -0.37833500	          0.00000000	        -91.42927900	        521.21321200	         17.58418500	          0.81657200	          0.00600000	         -0.31741800	          0.00000000	         -0.13825900	          0.00000000	
          0.70200000	         55.74709900	        173.06685300	         -4.79209200	          0.30375200	          0.00600000	         -0.17479300	          0.00000000	         -0.37053300	          0.00000000	        -91.62113400	        522.78810900	         17.75467900	          0.81672500	          0.00600000	         -0.31746600	          0.00000000	         -0.14708000	          0.00000000	
          0.70250000	         55.25337600	        171.02551200	         -4.70567500	          0.30395400	          0.00600000	         -0.17476100	          0.00000000	         -0.36279000	          0.00000000	        -91.80981900	        524.35471600	         17.92478800	          0.81687800	          0.00600000	         -0.31751300	          0.00000000	         -0.15592300	          0.00000000	
          0.70300000	         54.76006000	        168.99428600	         -4.62006500	          0.30415900	          0.00600000	         -0.17472900	          0.00000000	         -0.35510800	          0.00000000	        -91.99533100	        525.91298200	         18.09449900	          0.81703100	          0.00600000	         -0.31756000	          0.00000000	         -0.16478500	          0.00000000	
          0.70350000	         54.26720400	        166.97326200	         -4.53526000	          0.30436500	          0.00600000	         -0.17469600	          0.00000000	         -0.34748500	          0.00000000	        -92.17766900	        527.46285600	         18.26380100	          0.81718400	          0.00600000	         -0.31760700	          0.00000000	         -0.17366700	          0.00000000	
          0.70400000	         53.77486100	        164.96252700	         -4.45125800	          0.30457300	          0.00600000	         -0.17466300	          0.00000000	         -0.33992300	          0.00000000	        -92.35683000	        529.00428700	         18.43268400	          0.81733600	          0.00600000	         -0.31765400	          0.00000000	         -0.18256700	          0.00000000	
          0.70450000	         53.28308200	        162.96216600	         -4.36805500	          0.30478400	          0.00600000	         -0.17462900	          0.00000000	         -0.33242100	          0.00000000	        -92.53281500	        530.53722600	         18.60113700	          0.81748800	          0.00600000	         -0.31770100	          0.00000000	         -0.19148500	          0.00000000	
          0.70500000	         52.79191900	        160.97226200	         -4.28564900	          0.30499600	          0.00600000	         -0.17459500	          0.00000000	         -0.32497900	          0.00000000	        -92.70562100	        532.06162200	         18.76914800	          0.81763900	          0.00600000	         -0.31774800	          0.00000000	         -0.20041900	          0.00000000	
